<svg xmlns:rdf="http://www.w3.org/1999/02/22-rdf-syntax-ns#" xmlns="http://www.w3.org/2000/svg" version="1.1" xmlns:cc="http://creativecommons.org/ns#" xmlns:dc="http://purl.org/dc/elements/1.1/" viewBox="0 0 699.11998 450.16338">
 <defs>
  <marker id="j" refY="0" refX="0" orient="auto" overflow="visible">
   <path d="m0 0 5-5-17.5 5 17.5 5-5-5z" fill-rule="evenodd" transform="matrix(-.8 0 0 -.8 -10 0)" stroke="#000" stroke-width="1pt"/>
  </marker>
  <marker id="r" refY="0" refX="0" orient="auto" overflow="visible">
   <path d="m0 0 5-5-17.5 5 17.5 5-5-5z" fill-rule="evenodd" transform="matrix(-.8 0 0 -.8 -10 0)" stroke="#d63d25" stroke-width="1pt" fill="#d63d25"/>
  </marker>
  <marker id="p" refY="0" refX="0" orient="auto" overflow="visible">
   <path d="m0 0 5-5-17.5 5 17.5 5-5-5z" fill-rule="evenodd" transform="matrix(-.8 0 0 -.8 -10 0)" stroke="#d63d25" stroke-width="1pt" fill="#d63d25"/>
  </marker>
  <marker id="o" refY="0" refX="0" orient="auto" overflow="visible">
   <path d="m0 0 5-5-17.5 5 17.5 5-5-5z" fill-rule="evenodd" transform="matrix(-.8 0 0 -.8 -10 0)" stroke="#1e6388" stroke-width="1pt" fill="#1e6388"/>
  </marker>
  <marker id="q" refY="0" refX="0" orient="auto" overflow="visible">
   <path d="m0 0 5-5-17.5 5 17.5 5-5-5z" fill-rule="evenodd" transform="matrix(-.8 0 0 -.8 -10 0)" stroke="#d63d25" stroke-width="1pt" fill="#d63d25"/>
  </marker>
  <marker id="s" refY="0" refX="0" orient="auto" overflow="visible">
   <path d="m0 0 5-5-17.5 5 17.5 5-5-5z" fill-rule="evenodd" transform="matrix(-.8 0 0 -.8 -10 0)" stroke="#d63d25" stroke-width="1pt" fill="#d63d25"/>
  </marker>
  <marker id="t" refY="0" refX="0" orient="auto" overflow="visible">
   <path d="m0 0 5-5-17.5 5 17.5 5-5-5z" fill-rule="evenodd" transform="matrix(-.8 0 0 -.8 -10 0)" stroke="#d63d25" stroke-width="1pt" fill="#d63d25"/>
  </marker>
  <marker id="y" refY="0" refX="0" orient="auto" overflow="visible">
   <path d="m0 0 5-5-17.5 5 17.5 5-5-5z" fill-rule="evenodd" transform="matrix(-.8 0 0 -.8 -10 0)" stroke="#000" stroke-width="1pt"/>
  </marker>
  <marker id="w" refY="0" refX="0" orient="auto" overflow="visible">
   <path d="m0 0 5-5-17.5 5 17.5 5-5-5z" fill-rule="evenodd" transform="matrix(-.8 0 0 -.8 -10 0)" stroke="#000" stroke-width="1pt"/>
  </marker>
  <marker id="x" refY="0" refX="0" orient="auto" overflow="visible">
   <path d="m0 0 5-5-17.5 5 17.5 5-5-5z" fill-rule="evenodd" transform="matrix(-.8 0 0 -.8 -10 0)" stroke="#000" stroke-width="1pt"/>
  </marker>
  <marker id="n" refY="0" refX="0" orient="auto" overflow="visible">
   <path d="m0 0 5-5-17.5 5 17.5 5-5-5z" fill-rule="evenodd" transform="matrix(-.8 0 0 -.8 -10 0)" stroke="#1e6388" stroke-width="1pt" fill="#1e6388"/>
  </marker>
  <marker id="m" refY="0" refX="0" orient="auto" overflow="visible">
   <path d="m0 0 5-5-17.5 5 17.5 5-5-5z" fill-rule="evenodd" transform="matrix(-.8 0 0 -.8 -10 0)" stroke="#1e6388" stroke-width="1pt" fill="#1e6388"/>
  </marker>
  <marker id="l" refY="0" refX="0" orient="auto" overflow="visible">
   <path d="m0 0 5-5-17.5 5 17.5 5-5-5z" fill-rule="evenodd" transform="matrix(-.8 0 0 -.8 -10 0)" stroke="#1e6388" stroke-width="1pt" fill="#1e6388"/>
  </marker>
  <marker id="v" refY="0" refX="0" orient="auto" overflow="visible">
   <path d="m0 0 5-5-17.5 5 17.5 5-5-5z" fill-rule="evenodd" transform="matrix(-.8 0 0 -.8 -10 0)" stroke="#000" stroke-width="1pt"/>
  </marker>
  <marker id="u" refY="0" refX="0" orient="auto" overflow="visible">
   <path d="m0 0 5-5-17.5 5 17.5 5-5-5z" fill-rule="evenodd" transform="matrix(-.8 0 0 -.8 -10 0)" stroke="#000" stroke-width="1pt"/>
  </marker>
 </defs>
 <g transform="translate(-16.666 -367.46)">
  <g fill="#ffe698">
   <path d="m471.76 381.66v95.505h0.0834a60.55 12.032 0 0 0 60.478 11.632 60.55 12.032 0 0 0 60.448 -11.632h0.1137v-95.505h-121.12z" stroke="#000"/>
   <ellipse rx="60.55" ry="12.032" stroke="#000" cy="381.67" cx="532.32"/>
   <rect y="541.52" width="699.12" x="16.666" height="276.1"/>
  </g>
  <text style="word-spacing:0px;letter-spacing:0px;text-anchor:middle;text-align:center" xml:space="preserve" font-size="17.5px" y="800.16925" x="368.62952" font-family="sans-serif" line-height="125%" fill="#000000"><tspan y="800.16925" x="368.62952" font-size="15px">Compute Cluster</tspan></text>
  <rect height="26.508" width="307.85" y="744.77" x="47.508" fill="#543f00"/>
  <text style="word-spacing:0px;letter-spacing:0px;text-anchor:middle;text-align:center" xml:space="preserve" font-size="17.5px" y="763.36218" x="205" font-family="sans-serif" line-height="125%" fill="#000000"><tspan font-size="15px" y="763.36218" x="205" fill="#ffffff">Node 1</tspan></text>
  <rect height="26.508" width="307.85" y="745.11" x="382.08" fill="#543f00"/>
  <text style="word-spacing:0px;letter-spacing:0px;text-anchor:middle;text-align:center" xml:space="preserve" font-size="17.5px" y="763.70239" x="539.56848" font-family="sans-serif" line-height="125%" fill="#000000"><tspan font-size="15px" y="763.70239" x="539.56848" fill="#ffffff">Node 2</tspan></text>
  <rect height="26.508" width="307.85" y="678.11" x="48.076" fill="#033149"/>
  <text style="word-spacing:0px;letter-spacing:0px;text-anchor:middle;text-align:center" xml:space="preserve" font-size="17.5px" y="696.70239" x="205.5685" font-family="sans-serif" line-height="125%" fill="#000000"><tspan font-size="15px" y="696.70239" x="205.5685" fill="#ffffff">docker-engine</tspan></text>
  <rect height="26.508" width="307.85" y="679.11" x="382.08" fill="#033149"/>
  <text style="word-spacing:0px;letter-spacing:0px;text-anchor:middle;text-align:center" xml:space="preserve" font-size="17.5px" y="697.70239" x="539.56848" font-family="sans-serif" line-height="125%" fill="#000000"><tspan font-size="15px" y="697.70239" x="539.56848" fill="#ffffff">docker-engine</tspan></text>
  <rect height="50.508" width="88.848" y="590.11" x="265.58" fill="#540b00"/>
  <text style="word-spacing:0px;letter-spacing:0px;text-anchor:middle;text-align:center" xml:space="preserve" font-size="15px" y="609.70239" x="310.06845" font-family="sans-serif" line-height="125%" fill="#ffffff"><tspan y="609.70239" x="310.06845">App</tspan><tspan y="628.45239" x="310.06845">Container</tspan></text>
  <rect height="50.508" width="88.848" y="589.11" x="493.08" fill="#540b00"/>
  <text style="word-spacing:0px;letter-spacing:0px;text-anchor:middle;text-align:center" xml:space="preserve" font-size="15px" y="608.70239" x="537.56848" font-family="sans-serif" line-height="125%" fill="#ffffff"><tspan y="608.70239" x="537.56848">Data</tspan><tspan y="627.45239" x="537.56848">Container</tspan></text>
  <rect height="50.508" width="88.848" y="589.11" x="602.08" fill="#540b00"/>
  <text style="word-spacing:0px;letter-spacing:0px;text-anchor:middle;text-align:center" xml:space="preserve" font-size="15px" y="608.70239" x="646.56848" font-family="sans-serif" line-height="125%" fill="#ffffff"><tspan y="608.70239" x="646.56848">App</tspan><tspan y="627.45239" x="646.56848">Container</tspan></text>
  <rect height="50.508" width="88.848" y="589.91" x="156.78" fill="#540b00"/>
  <text style="word-spacing:0px;letter-spacing:0px;text-anchor:middle;text-align:center" font-size="15px" line-height="125%" y="609.49884" x="201.26569" font-family="sans-serif" xml:space="preserve" fill="#ffffff"><tspan y="609.49884" x="201.26569">App</tspan><tspan y="628.24884" x="201.26569">Container</tspan></text>
  <rect height="50.508" width="197.74" y="435.77" x="50.328" fill="#540b00"/>
  <text style="word-spacing:0px;letter-spacing:0px;text-anchor:middle;text-align:center" xml:space="preserve" font-size="15px" y="455.36365" x="148.82077" font-family="sans-serif" line-height="125%" fill="#ffffff"><tspan y="455.36365" x="148.82077">Curious Containers</tspan><tspan y="474.11365" x="148.82077">Server</tspan></text>
  <g fill="none">
   <g stroke="#d63d25">
    <g stroke-width="1px">
     <path marker-end="url(#p)" d="m649.12 580.72c-57.276-40.305-108.89 0-108.89 0"/>
     <path marker-end="url(#q)" d="m314.45 580.52c115.97-50.205 212.89 0 212.89 0"/>
     <path marker-end="url(#r)" d="m533.16 576.48v-78.167"/>
     <path d="m200.06 581.45c180.06-74.857 326.95-1.4371 326.95-1.4371" stroke-width="1"/>
    </g>
    <path marker-end="url(#s)" d="m304.76 578.8 204.36-77.46" stroke-dasharray="4, 4"/>
    <path marker-end="url(#t)" d="m658.66 577.7-103.24-79.58" stroke-dasharray="4, 4"/>
   </g>
   <g stroke="#000" stroke-width="1px">
    <path marker-end="url(#y)" d="m150.61 398.09v31.113"/>
    <path marker-end="url(#j)" d="m105.05 494.29v71.135h-74.728v168.14h505.85v-21.556" fill="none"/>
    <path marker-end="url(#j)" d="m201.33 732.84v-22.275" fill="none"/>
   </g>
  </g>
  <g font-size="12.5px" font-family="sans-serif">
   <text style="word-spacing:0px;letter-spacing:0px;text-anchor:middle;text-align:center" xml:space="preserve" line-height="125%" y="376.95389" x="149.90663" fill="#000000"><tspan y="376.95389" x="149.90663">POST tasks</tspan><tspan y="392.57889" x="149.90663">via REST</tspan></text>
   <text style="word-spacing:0px;letter-spacing:0px;text-anchor:middle;text-align:center" xml:space="preserve" line-height="125%" y="519.91083" x="91.558167" fill="#000000"><tspan y="519.91083" x="91.558167" style="text-anchor:end;text-align:end">create</tspan><tspan y="535.53583" x="91.558167" style="text-anchor:end;text-align:end">containers</tspan></text>
   <text style="word-spacing:0px;letter-spacing:0px;text-anchor:middle;text-align:center" xml:space="preserve" line-height="125%" y="655.55396" x="117.13485" fill="#1e6388"><tspan y="655.55396" x="117.13485" style="text-anchor:start;text-align:start">create</tspan><tspan y="671.17896" x="117.13485" style="text-anchor:start;text-align:start">containers</tspan></text>
   <g stroke="#1e6388" stroke-width="1px" fill="none">
    <path marker-end="url(#o)" d="m201.33 671.77v-23.712"/>
    <path marker-end="url(#n)" d="m309.83 671.45v-23.712"/>
    <path marker-end="url(#m)" d="m536.89 671.6v-23.712"/>
    <path marker-end="url(#l)" d="m646.82 672.88v-23.712"/>
   </g>
  </g>
  <path marker-end="url(#w)" d="m290.89 581.99-101.05-87.75" stroke="#000" stroke-dasharray="4, 4" fill="none"/>
  <text style="word-spacing:0px;letter-spacing:0px;text-anchor:middle;text-align:center" xml:space="preserve" font-size="15px" y="523.22662" x="282.96896" font-family="sans-serif" line-height="125%" fill="#000000"><tspan y="523.22662" x="282.96896" style="text-anchor:end;text-align:end" font-size="12.5px">callbacks</tspan></text>
  <path marker-end="url(#x)" d="m520.99 565.89-313.96-70.71" stroke="#000" stroke-dasharray="4, 4" fill="none"/>
  <g font-size="12.5px" font-family="sans-serif">
   <text style="word-spacing:0px;letter-spacing:0px;text-anchor:middle;text-align:center" xml:space="preserve" line-height="125%" y="574.82251" x="420.92953"><tspan y="574.82251" x="420.92953" fill="#d63d25">download inputs</tspan></text>
   <text style="word-spacing:0px;letter-spacing:0px;text-anchor:middle;text-align:center" xml:space="preserve" line-height="125%" y="523.31763" x="647.53107"><tspan y="523.31763" x="647.53107" fill="#d63d25">upload results</tspan></text>
   <text style="word-spacing:0px;letter-spacing:0px;text-anchor:middle;text-align:center" xml:space="preserve" line-height="125%" y="427.04587" x="532.36108"><tspan y="427.04587" x="532.36108">Remote</tspan><tspan y="442.67087" x="532.36108">Data</tspan><tspan y="458.29587" x="532.36108">Archive</tspan></text>
  </g>
  <path marker-end="url(#v)" d="m193.16 581-25.7-85.02" stroke="#000" stroke-dasharray="4, 4" fill="none"/>
  <path marker-end="url(#u)" d="m636.22 579.93-399.8-84.84" stroke="#000" stroke-dasharray="4, 4" fill="none"/>
 </g>
</svg>
